# xmcd
#
# Track frame offsets:
#	150
#	14661
#	32154
#	45792
#	59277
#	76455
#	90342
#	109404
#	124179
#	148596
#	162864
#	178881
#	203268
#	218523
#
# Disc length: 3186 seconds
#
# Revision: 0
# Processed by: cddbd v1.5PL3 Copyright (c) Steve Scherf et al.
# Submitted via: dBpowerAMP V4.0
#
DISCID=b40c700e
DTITLE=JJ Blues Band - That´s It
DYEAR=2004
DGENRE=Blues
TTITLE0=Chicago Bound
TTITLE1=We´ll Play The Blues
TTITLE2=Green Grass Blues
TTITLE3=Groovin´
TTITLE4=Ít Hurts Me Too
TTITLE5=Not Too Proud
TTITLE6=Born In Chicago
TTITLE7=Screamin´
TTITLE8=Garbage Man Blues
TTITLE9=Broke And Hungry
TTITLE10=Kansas City Blues
TTITLE11=I´m Gonna Murder My Baby
TTITLE12=Bad Tempered Woman
TTITLE13=Everything´s Gonna Be Allright
EXTD=
EXTT0=
EXTT1=
EXTT2=
EXTT3=
EXTT4=
EXTT5=
EXTT6=
EXTT7=
EXTT8=
EXTT9=
EXTT10=
EXTT11=
EXTT12=
EXTT13=
PLAYORDER=
